<svg id="Layer_1" data-name="Layer 1" xmlns="http://www.w3.org/2000/svg" xmlns:xlink="http://www.w3.org/1999/xlink" viewBox="0 0 1431.83 321.49"><defs><style>.cls-1,.cls-10,.cls-11,.cls-12,.cls-13,.cls-14,.cls-3,.cls-4,.cls-5,.cls-6,.cls-7,.cls-8,.cls-9{fill:none;}.cls-2{clip-path:url(#clip-path);}.cls-10,.cls-11,.cls-12,.cls-13,.cls-14,.cls-3,.cls-4,.cls-5,.cls-6,.cls-7,.cls-8,.cls-9{stroke-miterlimit:10;stroke-width:2px;}.cls-3{stroke:url(#linear-gradient);}.cls-4{stroke:url(#linear-gradient-2);}.cls-5{stroke:url(#linear-gradient-3);}.cls-6{stroke:url(#linear-gradient-4);}.cls-7{stroke:url(#linear-gradient-5);}.cls-8{stroke:url(#linear-gradient-6);}.cls-9{stroke:url(#linear-gradient-7);}.cls-10{stroke:url(#linear-gradient-8);}.cls-11{stroke:url(#linear-gradient-9);}.cls-12{stroke:url(#linear-gradient-10);}.cls-13{stroke:url(#linear-gradient-11);}.cls-14{stroke:url(#linear-gradient-12);}</style><clipPath id="clip-path"><polygon class="cls-1" points="30.71 -276.9 2052.1 235.32 1986.46 760.42 -34.92 248.19 30.71 -276.9"/></clipPath><linearGradient id="linear-gradient" x1="-1.75" y1="416.65" x2="2041.29" y2="161.27" gradientTransform="matrix(1, 0, 0, -1, 0, 483.75)" gradientUnits="userSpaceOnUse"><stop offset="0.08" stop-color="#0021bf"/><stop offset="0.12" stop-color="#0128c1"/><stop offset="0.17" stop-color="#063dc8"/><stop offset="0.23" stop-color="#0e60d4"/><stop offset="0.31" stop-color="#1891e4"/><stop offset="0.39" stop-color="#26cef9"/><stop offset="0.4" stop-color="#2adeff"/><stop offset="0.63" stop-color="#005de9"/><stop offset="0.79" stop-color="#0a96f3"/><stop offset="0.93" stop-color="#11c2fb"/><stop offset="1" stop-color="#15d4ff"/></linearGradient><linearGradient id="linear-gradient-2" x1="-4.85" y1="399.56" x2="2038.16" y2="144.18" xlink:href="#linear-gradient"/><linearGradient id="linear-gradient-3" x1="-7.95" y1="382.47" x2="2035.02" y2="127.1" xlink:href="#linear-gradient"/><linearGradient id="linear-gradient-4" x1="-11.05" y1="365.42" x2="2031.89" y2="110.06" xlink:href="#linear-gradient"/><linearGradient id="linear-gradient-5" x1="-14.14" y1="348.41" x2="2028.76" y2="93.05" xlink:href="#linear-gradient"/><linearGradient id="linear-gradient-6" x1="-17.23" y1="331.42" x2="2025.63" y2="76.06" xlink:href="#linear-gradient"/><linearGradient id="linear-gradient-7" x1="-20.31" y1="314.46" x2="2022.51" y2="59.11" xlink:href="#linear-gradient"/><linearGradient id="linear-gradient-8" x1="-23.39" y1="297.55" x2="2019.39" y2="42.2" xlink:href="#linear-gradient"/><linearGradient id="linear-gradient-9" x1="-26.46" y1="280.67" x2="2016.28" y2="25.32" xlink:href="#linear-gradient"/><linearGradient id="linear-gradient-10" x1="-29.54" y1="263.85" x2="2013.17" y2="8.51" xlink:href="#linear-gradient"/><linearGradient id="linear-gradient-11" x1="-32.6" y1="247.09" x2="2010.07" y2="-8.24" xlink:href="#linear-gradient"/><linearGradient id="linear-gradient-12" x1="-35.65" y1="230.39" x2="2006.97" y2="-24.93" xlink:href="#linear-gradient"/></defs><g class="cls-2"><path class="cls-3" d="M-5.18,97C140.59,166.24,315.94,166.1,453,145c140.69-21.68,267.57-66.58,403.66-96.34s288-43.82,440.92-3.91c139.74,36.48,267.24,114.62,379.58,199.43,114.73,86.61,217.42,187,340.17,266.55"/><path class="cls-4" d="M-6.46,99.75c64.26,32.06,137.62,49.59,208.22,57.4,80.12,8.93,159.88,5.6,231.21-3.78q10-1.31,19.71-2.78c66-9.9,129-24.88,191.33-40.91,71.25-18.3,141.73-38,215-53,40.15-8.37,81.65-15.32,124.13-19.87,99-10.6,203.27-8.24,307.8,19.75,4.46,1.2,8.92,2.43,13.35,3.71q15.77,4.55,31.31,9.79c119,40.08,227.79,109.21,325.25,183.21,119.21,91,226.23,195.29,352.72,279.85"/><path class="cls-5" d="M-7.75,102.5c63,33,138.28,51,208.22,59.09,80.34,9.46,160.2,6.51,232.1-2.67q10-1.28,19.78-2.71c66.26-9.69,129.57-24.47,192.32-40.19,71.67-17.94,142.81-36.93,216.57-51.31,39.51-7.71,80.17-14.2,121.83-18.23,97-9.38,199.09-6.15,301.12,21.88q6.52,1.8,13,3.72,15.38,4.55,30.54,9.76c116.08,39.9,221.9,107.82,316.66,180.52,124,95.1,235,203.61,365.28,293.16"/><path class="cls-6" d="M-9,105.24c61.82,34,139,52.34,208.23,60.8,80.55,10,160.51,7.41,233-1.57q10-1.25,19.87-2.65c66.54-9.47,130.17-24.06,193.29-39.45,72.11-17.58,143.83-36,218.21-49.62,38.83-7.1,78.69-13.07,119.53-16.58,95.05-8.17,194.91-4.08,294.43,24q6.38,1.8,12.71,3.72,15,4.53,29.75,9.72c113.17,39.74,215.88,106.56,308.08,177.84,128.54,99.36,243.84,211.92,377.84,306.46"/><path class="cls-7" d="M-10.33,108c60.6,34.91,139.62,53.72,208.23,62.5C278.67,181,358.73,178.8,431.78,170q10.07-1.22,20-2.59c66.82-9.25,130.78-23.64,194.28-38.72,72.54-17.23,144.83-35.11,219.84-47.93,38.13-6.52,77.2-12,117.23-14.94,93.08-7,190.72-2,287.75,26.15q6.2,1.8,12.37,3.71,14.61,4.53,29,9.7C1422.46,145,1522,210.71,1611.69,280.55c133.1,103.65,252.64,220.23,390.39,319.76"/><path class="cls-8" d="M-11.62,110.73c59.37,35.86,140.28,55.1,208.22,64.21,81,11.05,161.16,9.2,234.77.62q10.11-1.19,20.05-2.52c67.11-9,131.39-23.23,195.26-38,73-16.87,145.82-34.22,221.46-46.24,37.43-6,75.73-10.83,114.93-13.29,91.12-5.74,186.55.08,281.06,28.28q6,1.8,12,3.71,14.22,4.55,28.21,9.67c107.35,39.39,203.76,104.09,290.92,172.46,137.63,108,261.45,228.56,403,333.07"/><path class="cls-9" d="M-12.9,113.48C45.24,150.29,128,170,195.32,179.39,276.53,191,356.79,189.49,431,181.11c6.76-.76,13.47-1.59,20.13-2.45,67.4-8.82,132-22.82,196.24-37.27,73.41-16.51,146.8-33.36,223.09-44.55,36.72-5.38,74.25-9.7,112.64-11.64,89.15-4.53,182.36,2.16,274.37,30.41q5.88,1.81,11.73,3.72,13.83,4.53,27.44,9.64c104.43,39.22,197.67,102.87,282.33,169.77,142.13,112.31,270.25,236.87,415.5,346.38"/><path class="cls-10" d="M-14.19,116.22C42.72,154,127.41,174.08,194,183.83c81.43,12.11,161.79,11,236.56,2.83q10.17-1.12,20.21-2.4c67.69-8.59,132.61-22.4,197.22-36.53,73.84-16.15,147.76-32.53,224.73-42.86,36-4.83,72.77-8.58,110.33-10,87.19-3.31,178.18,4.23,267.69,32.54q5.71,1.8,11.41,3.72,13.44,4.52,26.66,9.61c101.52,39.05,191.56,101.67,273.75,167.08C1709.17,424.5,1841.63,553,1990.64,667.51"/><path class="cls-11" d="M-15.48,119c55.69,38.72,142.27,59.23,208.22,69.32,81.64,12.63,162.11,11.9,237.44,3.93q10.21-1.08,20.31-2.33c68-8.38,133.21-22,198.2-35.81C723,138.29,797.4,122.36,875.05,112.92c35.29-4.3,71.28-7.45,108-8.35,85.22-2.1,174,6.31,261,34.67q5.55,1.8,11.08,3.72,13,4.51,25.89,9.58c98.61,38.87,185.43,100.48,265.17,164.39,151,121.07,287.85,253.5,440.61,373"/><path class="cls-12" d="M-16.78,121.71c54.47,39.67,142.94,60.61,208.22,71,81.87,13.17,162.43,12.8,238.33,5q10.26-1.06,20.39-2.27c68.26-8.17,133.83-21.57,199.19-35.07C724.05,145,799,129.48,877.34,121c34.57-3.77,69.8-6.33,105.73-6.71,83.25-.88,169.81,8.4,254.32,36.81q5.38,1.8,10.76,3.73,12.64,4.5,25.11,9.54C1369,203,1452.55,263.63,1529.84,326,1685.25,451.52,1826.51,587.85,1983,712.32"/><path class="cls-13" d="M-18.07,124.46c53.25,40.62,143.6,62,208.22,72.72,82.08,13.69,162.75,13.7,239.22,6.13q10.29-1,20.47-2.2c68.55-8,134.44-21.16,200.17-34.35,75.13-15.08,150.58-30.19,229.61-37.78,33.85-3.25,68.33-5.2,103.44-5.06,81.28.33,165.63,10.48,247.63,38.94,3.49,1.21,7,2.45,10.44,3.72q12.25,4.5,24.34,9.51c92.79,38.54,173,98.21,248,159C1673,465.19,1819,605.25,1979.2,734.71"/><path class="cls-14" d="M-19.36,127.2c52,41.58,144.27,63.37,208.22,74.42,82.3,14.23,163.06,14.6,240.1,7.23,76.26-7.29,149.06-21.6,221.71-35.76,75.58-14.71,151.5-29.47,231.25-36.08a990.67,990.67,0,0,1,101.14-3.41c82.68,1.62,168.42,13.51,251,44.79q11.88,4.5,23.57,9.49c89.88,38.36,167,97,239.42,156.34,164.05,134.41,314.28,278.44,478.28,412.89"/></g></svg>